<?xml version="1.0" encoding="utf-8"?>
<!-- Generator: Adobe Illustrator 23.0.0, SVG Export Plug-In . SVG Version: 6.00 Build 0)  -->
<svg version="1.1" id="图层_1" xmlns="http://www.w3.org/2000/svg" xmlns:xlink="http://www.w3.org/1999/xlink" x="0px" y="0px"
	 viewBox="0 0 80 80" style="enable-background:new 0 0 80 80;" xml:space="preserve">
<style type="text/css">
	.st0{fill:#333333;}
</style>
<title>logo</title>
<path class="st0" d="M39.1,37c-2.5,0-4.5,2-4.4,4.5c0,1.6,0.8,3,2.2,3.8L36,55.5h6.4l-1-10.2c2.1-1.2,2.8-4,1.6-6.1
	C42.2,37.8,40.7,37,39.1,37L39.1,37z"/>
<path class="st0" d="M39.1,61.7c-9.4-0.2-16.8-7.9-16.7-17.3l0.2-17l0,0v-4.2H11l-0.1,21.1C10.8,60.1,23.4,73,39.1,73.2l0,0
	L39.1,61.7z"/>
<path class="st0" d="M39,61.7c9.3-0.2,16.8-7.9,16.7-17.3l-0.2-17l0,0c0-1.4,0-2.8,0.1-4.2h11.6v21.1C67.4,60.1,54.8,73,39,73.2l0,0
	V61.7z"/>
<path class="st0" d="M11,8.3v5.1c0.1,3.2,2.7,5.8,5.9,5.7l16-0.2v13.8h11.7V19l16.7,0.2c3.2,0,5.9-2.5,5.9-5.7V8.3H11z"/>
</svg>
